<?xml version="1.0" standalone="no"?>
<!DOCTYPE svg PUBLIC "-//W3C//DTD SVG 20010904//EN"
 "http://www.w3.org/TR/2001/REC-SVG-20010904/DTD/svg10.dtd">
<svg version="1.0" xmlns="http://www.w3.org/2000/svg"
 width="2363.000000pt" height="2363.000000pt" viewBox="0 0 2363.000000 2363.000000"
 preserveAspectRatio="xMidYMid meet">

<g transform="translate(0.000000,2363.000000) scale(0.100000,-0.100000)"
fill="#000000" stroke="none">
<path d="M9430 17513 c-428 -33 -857 -168 -1227 -384 -239 -141 -441 -296
-638 -494 -477 -476 -764 -1047 -850 -1691 -22 -165 -30 -517 -16 -688 23
-269 85 -584 163 -825 184 -568 564 -1120 1142 -1660 769 -716 1694 -1277
2916 -1766 558 -223 647 -248 890 -249 189 -1 293 16 505 85 350 113 1139 467
1577 707 892 489 1640 1095 2231 1805 440 528 690 1053 778 1632 26 172 35
479 20 660 -69 798 -393 1489 -966 2060 -537 536 -1167 785 -1985 785 -484 -1
-919 -79 -1360 -246 -165 -63 -497 -224 -645 -313 -175 -105 -197 -105 -395
10 -607 350 -1091 519 -1625 569 -102 9 -410 11 -515 3z m650 -307 c308 -42
625 -147 990 -330 193 -97 438 -235 564 -318 82 -54 92 -58 146 -58 65 0 85 9
305 140 536 318 1058 509 1551 566 197 23 559 15 734 -16 282 -50 509 -125
775 -255 565 -278 972 -696 1205 -1239 104 -243 142 -430 142 -706 1 -204 -15
-345 -63 -577 -118 -570 -375 -1099 -827 -1703 -107 -141 -307 -390 -316 -390
-2 0 1 21 6 48 17 81 13 347 -6 437 -48 220 -132 366 -324 566 -97 101 -140
154 -160 196 -30 64 -29 35 -21 503 4 212 -6 290 -57 453 -214 677 -932 1011
-1697 791 -156 -45 -285 -100 -590 -251 -403 -200 -610 -283 -703 -283 -97 0
-153 68 -154 184 0 51 7 73 50 160 63 126 85 230 77 361 -17 265 -162 494
-374 593 -48 22 -72 26 -143 27 -99 0 -151 -21 -197 -81 -64 -83 -86 -104
-109 -104 -15 0 -52 26 -106 76 -463 426 -982 584 -1578 480 -395 -70 -717
-271 -1037 -651 -215 -255 -334 -493 -392 -785 -118 -597 31 -1193 413 -1648
208 -247 460 -421 1171 -805 354 -191 403 -207 646 -207 163 0 209 -14 295
-86 95 -81 147 -101 300 -119 179 -21 297 -55 441 -126 156 -76 262 -102 423
-101 84 0 136 6 194 21 250 66 432 262 498 537 37 154 58 154 98 -1 68 -265
241 -461 482 -547 218 -77 592 -89 886 -28 242 50 428 130 707 304 79 49 115
46 165 -16 132 -162 262 -248 386 -256 35 -3 64 -8 64 -12 0 -10 -247 -244
-410 -388 -611 -540 -1539 -1174 -1993 -1360 -277 -114 -517 -160 -782 -149
-307 13 -582 94 -890 264 -635 350 -1197 741 -1723 1199 -192 167 -614 590
-773 774 -607 703 -946 1266 -1118 1854 -88 300 -125 548 -125 836 0 224 12
318 64 505 121 427 432 854 875 1198 385 300 828 475 1330 526 138 14 569 12
685 -3z m-273 -922 c335 -49 621 -199 875 -456 226 -230 631 -779 738 -1003
151 -315 189 -668 108 -1020 -115 -501 -477 -947 -925 -1140 -181 -78 -408
-122 -578 -111 -190 11 -304 50 -639 218 -572 286 -934 556 -1145 853 -214
303 -318 693 -282 1059 34 344 159 689 349 956 82 116 269 305 379 383 199
141 438 236 673 266 111 14 336 12 447 -5z m1498 -388 c90 -41 163 -139 211
-281 22 -65 27 -99 28 -180 1 -91 -2 -105 -28 -158 -28 -59 -61 -85 -91 -73
-41 15 -117 249 -131 402 -6 63 -12 83 -31 102 -17 17 -30 21 -46 17 -37 -12
-47 -29 -53 -86 -9 -92 -13 -103 -30 -88 -26 21 -62 92 -73 142 -21 90 11 163
89 204 55 29 92 29 155 -1z m2380 -727 c251 -34 431 -121 596 -284 92 -92 153
-178 209 -298 134 -286 143 -670 21 -965 -67 -161 -212 -339 -366 -447 -268
-187 -291 -210 -246 -234 51 -28 296 85 541 249 161 108 239 135 316 110 47
-16 131 -94 190 -176 53 -75 136 -247 159 -329 22 -80 31 -302 16 -391 -36
-208 -154 -291 -308 -220 -66 31 -208 165 -223 211 -13 38 -1 70 64 175 48 78
51 93 23 126 -30 35 -67 28 -96 -20 -37 -60 -215 -221 -326 -295 -225 -150
-460 -238 -760 -282 -447 -66 -724 -14 -919 172 -86 81 -146 184 -172 295 -22
95 -15 289 15 399 53 191 151 387 272 542 34 43 115 131 180 195 66 64 119
124 119 132 0 17 -27 46 -43 46 -7 0 -39 -16 -71 -36 -230 -139 -432 -363
-547 -608 -46 -100 -109 -285 -109 -324 0 -35 -26 -72 -49 -72 -21 0 -53 33
-76 80 -67 134 -221 298 -351 374 -84 49 -125 57 -156 29 -32 -29 -23 -63 30
-107 26 -23 95 -88 153 -146 89 -89 113 -119 148 -190 87 -177 92 -336 16
-495 -88 -184 -293 -297 -510 -281 -189 14 -307 64 -446 190 -146 133 -245
182 -270 136 -4 -8 -11 -32 -14 -52 -6 -38 -6 -38 -54 -38 -73 0 -148 27 -193
69 l-41 37 59 13 c154 34 360 136 535 267 123 91 166 109 265 109 76 0 88 -3
165 -43 46 -23 90 -42 96 -42 7 0 20 11 28 24 15 23 15 27 -4 63 -27 53 -77
98 -136 124 -99 43 -100 47 -12 174 158 232 257 469 314 757 13 64 17 145 17
355 l1 273 30 30 c21 20 75 47 170 84 167 64 298 122 487 217 222 111 409 196
516 233 95 33 289 81 362 89 77 9 313 6 385 -4z"/>
<path d="M9085 15160 c-8 -13 0 -24 73 -110 100 -118 147 -243 140 -374 -6
-104 -34 -170 -99 -231 -66 -62 -82 -60 -118 18 -32 70 -78 118 -135 142 -22
9 -91 20 -155 25 -128 10 -189 25 -255 64 -85 49 -146 146 -167 263 -23 125
-35 138 -68 69 -31 -63 -38 -167 -17 -240 21 -72 51 -120 103 -167 91 -82 182
-116 338 -125 178 -10 196 -24 226 -170 25 -124 37 -138 104 -130 150 17 320
171 381 345 33 93 33 229 0 323 -44 125 -127 219 -244 279 -59 30 -96 36 -107
19z"/>
<path d="M10547 14648 c-23 -18 -37 -62 -37 -117 0 -108 -58 -194 -157 -231
-30 -11 -61 -20 -69 -20 -29 0 -75 -31 -85 -57 -15 -41 5 -88 48 -108 28 -14
53 -16 109 -12 216 16 365 208 334 429 -6 38 -15 77 -22 87 -23 38 -88 53
-121 29z"/>
<path d="M9641 13583 c-13 -12 -25 -38 -31 -73 -14 -76 -55 -155 -97 -188 -19
-15 -72 -45 -117 -67 -81 -40 -81 -40 -84 -82 -2 -32 2 -47 19 -64 19 -19 29
-21 108 -17 105 5 168 35 241 115 63 69 92 144 92 238 0 91 -13 122 -57 140
-44 19 -48 19 -74 -2z"/>
<path d="M10840 13545 c-6 -7 -20 -48 -30 -89 -26 -101 -50 -145 -109 -198
-50 -45 -87 -63 -193 -92 -61 -17 -88 -37 -88 -64 1 -55 90 -82 201 -62 192
35 315 169 327 356 5 90 0 125 -24 148 -19 20 -68 21 -84 1z"/>
<path d="M6080 9778 c-123 -45 -191 -52 -480 -52 -197 0 -335 5 -485 19 -290
27 -912 29 -1086 2 -232 -35 -503 -115 -686 -203 -118 -56 -282 -167 -357
-240 -178 -174 -286 -420 -286 -650 0 -68 2 -74 28 -93 43 -30 178 -73 220
-69 l37 3 8 100 c14 193 71 384 159 533 18 31 78 102 133 157 77 77 118 110
180 142 154 80 323 123 571 144 194 16 403 6 876 -43 355 -37 433 -42 653 -42
202 -1 267 3 340 17 140 28 194 46 209 70 38 59 63 228 34 226 -7 0 -38 -10
-68 -21z"/>
<path d="M9080 9764 c-264 -28 -454 -83 -669 -194 -402 -207 -763 -583 -988
-1030 -128 -256 -157 -375 -113 -464 30 -62 96 -133 154 -166 47 -28 105 -40
107 -22 0 4 2 36 5 72 12 188 133 470 322 751 373 556 845 923 1217 946 79 5
97 3 143 -17 107 -46 147 -130 146 -305 0 -93 -5 -123 -28 -190 -37 -110 -83
-187 -163 -280 -125 -145 -284 -256 -474 -334 -70 -28 -95 -43 -97 -58 -5 -32
24 -46 101 -51 88 -5 130 -25 188 -90 160 -178 185 -491 60 -741 -168 -333
-584 -561 -1027 -561 -226 0 -426 97 -499 243 -60 121 -4 287 129 378 20 13
36 27 36 30 0 20 -154 56 -275 65 l-90 6 -54 -63 c-30 -35 -68 -93 -85 -129
-26 -55 -31 -76 -31 -140 0 -62 6 -86 28 -132 76 -156 256 -275 518 -343 188
-49 511 -46 759 7 523 111 912 419 1009 798 32 127 36 214 12 291 -49 156
-224 348 -383 419 -36 16 -40 20 -23 26 11 4 54 20 95 36 359 141 593 413 617
717 22 288 -199 504 -537 524 -41 2 -91 3 -110 1z"/>
<path d="M16585 9744 c-514 -76 -949 -311 -1159 -627 -139 -209 -152 -395 -40
-584 35 -58 99 -132 334 -386 174 -187 230 -289 238 -434 9 -169 -52 -328
-173 -448 -82 -81 -169 -131 -300 -171 -83 -26 -103 -28 -265 -28 -251 -1
-349 30 -451 142 -63 69 -83 133 -77 246 8 146 78 233 276 346 61 35 112 70
112 77 0 21 -79 65 -180 100 -136 47 -158 45 -247 -23 -144 -110 -236 -241
-263 -371 -19 -89 -9 -217 22 -283 93 -202 370 -363 707 -411 477 -67 1092
291 1227 716 47 148 22 286 -82 451 -61 98 -94 138 -263 324 -238 263 -319
421 -309 605 10 184 143 341 393 461 185 89 349 135 554 155 118 11 176 6 239
-21 135 -59 70 -261 -149 -464 -40 -37 -101 -85 -136 -108 -42 -27 -62 -46
-58 -55 3 -8 5 -16 5 -18 0 -10 94 -67 132 -81 57 -20 163 -20 214 0 52 21
102 88 176 234 156 310 122 551 -92 634 -46 17 -80 21 -205 24 -82 1 -163 0
-180 -2z"/>
<path d="M8703 9508 c-23 -27 -207 -386 -304 -590 -228 -482 -420 -968 -518
-1316 -29 -102 -31 -113 -18 -144 33 -78 156 -198 189 -185 8 2 42 80 76 172
209 553 518 1210 784 1665 43 73 81 144 84 157 9 34 -31 107 -84 154 -79 69
-187 114 -209 87z"/>
<path d="M4284 9483 c-7 -4 -54 -73 -106 -153 -539 -828 -944 -1708 -984
-2139 -7 -71 -7 -72 31 -127 43 -62 139 -154 161 -154 17 0 15 -7 43 140 98
510 547 1404 1015 2018 135 178 137 182 129 223 -17 88 -233 231 -289 192z"/>
<path d="M4852 9296 c-58 -174 -148 -378 -339 -771 -91 -187 -190 -396 -220
-465 -104 -238 -180 -498 -198 -683 -7 -67 -6 -68 27 -99 46 -43 134 -82 187
-82 l45 -1 13 101 c17 136 62 306 123 465 58 153 98 208 276 385 129 129 211
194 244 194 21 0 22 -3 18 -47 -3 -28 -45 -149 -101 -288 -139 -349 -152 -395
-152 -536 0 -111 1 -117 30 -164 21 -33 47 -57 85 -79 50 -28 63 -31 145 -31
78 0 98 4 145 27 79 39 209 146 282 231 l63 74 20 -71 c57 -198 229 -292 498
-271 287 22 468 144 708 479 92 128 199 299 199 318 0 40 -64 62 -110 38 -10
-5 -35 -40 -56 -77 -155 -281 -384 -518 -571 -592 -162 -64 -253 -17 -297 154
-9 32 -16 74 -16 91 0 31 3 33 68 55 265 87 509 265 644 469 89 134 112 184
116 255 5 78 -19 128 -80 168 -50 32 -106 41 -217 34 -186 -12 -416 -131 -577
-299 -95 -98 -223 -300 -275 -429 -31 -81 -115 -195 -219 -299 -98 -99 -212
-183 -239 -178 -36 7 -18 184 33 320 13 35 63 153 111 263 112 258 165 393
165 422 0 63 -96 172 -170 194 -30 9 -53 8 -110 -5 -106 -24 -189 -69 -343
-187 -23 -18 -13 7 63 152 120 230 297 592 317 650 14 39 15 51 4 77 -33 78
-162 162 -251 162 l-46 0 -42 -124z m1698 -875 c20 -39 12 -116 -20 -177 -105
-198 -294 -376 -504 -475 -87 -40 -106 -46 -106 -29 0 19 63 167 108 254 95
184 246 350 375 412 82 39 131 44 147 15z"/>
<path d="M11870 9394 c-6 -14 -10 -30 -10 -35 0 -15 -88 -242 -142 -369 -28
-63 -128 -275 -223 -470 -95 -195 -190 -395 -211 -445 -40 -96 -171 -311 -263
-435 -110 -147 -255 -270 -318 -270 -21 0 -23 4 -23 63 0 79 34 196 105 366
30 72 55 143 55 158 0 94 -177 226 -276 207 -29 -5 -33 -10 -39 -52 -11 -78
-65 -234 -98 -287 -86 -135 -298 -369 -369 -406 -132 -68 -219 36 -188 226 36
224 192 518 359 678 92 87 170 129 250 135 101 6 142 -41 161 -184 13 -96 33
-119 93 -111 64 9 71 20 63 114 -16 211 -103 300 -301 311 -209 11 -420 -85
-613 -278 -223 -223 -372 -517 -372 -735 0 -96 18 -163 60 -227 55 -82 182
-148 287 -148 101 0 244 74 384 201 l76 68 6 -60 c7 -79 46 -143 110 -183 40
-24 61 -30 128 -34 45 -3 105 1 134 7 95 21 235 129 358 276 l50 60 -7 -40
c-4 -22 -9 -73 -13 -113 -6 -69 -5 -74 21 -101 38 -40 129 -83 185 -89 l48 -4
7 60 7 60 64 -43 c37 -25 85 -48 115 -54 114 -25 276 -5 397 49 77 34 207 126
280 198 263 260 427 677 358 908 -37 125 -164 204 -327 204 -38 0 -90 -5 -116
-11 -50 -12 -219 -90 -289 -134 -24 -14 -43 -24 -43 -21 0 3 38 77 84 163 140
262 306 616 306 652 0 18 -7 45 -15 60 -36 70 -160 141 -246 141 -33 0 -41 -4
-49 -26z m348 -989 c57 -16 70 -144 27 -271 -64 -190 -192 -392 -350 -549
-130 -131 -209 -179 -291 -179 -106 0 -149 67 -149 229 1 98 2 102 51 215 91
206 106 229 200 320 125 120 224 183 349 223 78 25 110 27 163 12z"/>
<path d="M12884 8583 c-18 -3 -28 -25 -59 -121 -20 -64 -82 -242 -136 -395
-162 -454 -193 -585 -169 -700 24 -116 99 -177 219 -177 135 0 243 52 374 180
37 36 67 64 67 63 0 -15 -219 -482 -234 -500 -1 -1 -37 9 -80 23 -139 44 -243
56 -431 51 -200 -5 -254 -17 -405 -89 -91 -44 -116 -61 -185 -132 -110 -112
-154 -207 -155 -335 0 -78 18 -127 68 -182 174 -194 681 -200 994 -12 93 55
215 165 290 261 28 37 55 71 59 76 4 5 74 -38 155 -95 140 -98 150 -103 195
-101 64 3 173 38 206 67 23 19 26 27 17 42 -13 21 -266 195 -372 256 -40 22
-71 44 -69 47 85 145 667 1516 667 1570 0 71 -112 164 -230 191 -72 17 -68 24
-174 -294 -105 -316 -130 -367 -286 -589 -145 -206 -357 -373 -384 -302 -30
77 52 329 246 759 79 175 98 226 94 250 -15 72 -103 151 -202 181 -26 8 -50
13 -53 13 -3 -1 -16 -4 -27 -6z m-263 -1768 c46 -8 115 -25 152 -37 l68 -23
-62 -90 c-220 -320 -437 -469 -654 -452 -183 15 -274 98 -275 250 0 82 15 121
70 181 137 148 427 219 701 171z"/>
<path d="M17345 8580 c-247 -53 -512 -276 -648 -545 -63 -126 -82 -205 -81
-335 0 -96 4 -125 24 -175 81 -208 243 -325 455 -328 138 -2 252 44 389 153
293 236 453 694 327 938 -16 32 -36 82 -45 112 -20 72 -63 122 -133 157 -49
23 -71 28 -153 30 -52 1 -113 -2 -135 -7z m235 -130 c10 -5 23 -23 29 -40 9
-26 8 -32 -7 -37 -38 -14 -143 -86 -167 -114 -50 -61 -25 -220 36 -227 21 -2
28 2 33 21 16 64 155 192 180 167 17 -17 9 -154 -14 -243 -24 -92 -99 -256
-157 -344 -55 -83 -152 -183 -216 -221 -65 -39 -151 -52 -210 -33 -53 18 -102
80 -123 157 -58 217 87 609 297 798 102 92 258 149 319 116z"/>
<path d="M18700 8584 c-270 -52 -577 -321 -739 -649 -84 -169 -95 -211 -96
-360 0 -130 0 -130 35 -194 57 -106 184 -181 306 -181 102 0 254 81 397 210
l67 62 0 -49 c0 -52 28 -124 63 -161 43 -46 96 -65 192 -70 137 -6 225 32 353
151 28 28 52 48 52 45 0 -2 -29 -68 -65 -146 -127 -281 -213 -549 -229 -713
-5 -56 -3 -70 13 -91 28 -35 130 -87 186 -95 53 -7 65 2 65 50 0 77 59 295
126 467 47 120 233 510 243 509 3 0 20 -19 36 -42 84 -116 255 -157 449 -107
101 26 152 49 252 115 208 139 387 385 480 660 46 137 57 275 30 370 -25 84
-99 156 -191 184 -166 51 -337 12 -539 -123 -38 -25 -72 -46 -76 -46 -4 0 -10
12 -13 28 -17 83 -234 204 -288 160 -9 -7 -24 -42 -33 -78 -10 -35 -58 -170
-107 -300 -95 -246 -150 -348 -300 -550 -107 -144 -253 -270 -316 -270 -62 0
-24 185 98 472 50 116 48 143 -12 212 -65 74 -166 122 -229 109 -25 -4 -29
-11 -40 -67 -6 -33 -25 -101 -41 -151 -24 -75 -42 -108 -110 -199 -97 -130
-259 -300 -311 -327 -53 -27 -110 -25 -147 6 -88 75 -54 302 86 578 133 260
324 442 478 455 102 8 145 -41 166 -191 11 -80 14 -87 40 -98 39 -15 96 -4
110 23 13 25 5 135 -16 206 -22 72 -67 127 -132 158 -48 24 -69 28 -162 30
-58 1 -117 0 -131 -2z m1893 -205 c24 -26 27 -37 27 -100 0 -285 -412 -842
-646 -873 -62 -9 -105 12 -134 64 -22 39 -25 57 -25 140 1 105 6 121 121 373
46 101 66 133 117 185 102 105 229 186 352 225 101 32 147 29 188 -14z"/>
</g>
</svg>
